<?xml version="1.0" encoding="utf-8"?>
<!-- Generator: Adobe Illustrator 21.0.0, SVG Export Plug-In . SVG Version: 6.00 Build 0)  -->
<svg version="1.1" id="图层_1" xmlns="http://www.w3.org/2000/svg" xmlns:xlink="http://www.w3.org/1999/xlink" x="0px" y="0px"
	 viewBox="0 0 200 200" style="enable-background:new 0 0 200 200;" xml:space="preserve">
<style type="text/css">
	.st0{fill:#515151;}
</style>
<g>
	<path class="st0" d="M184.7,99.8c-1.2,0-2.2-0.4-3.1-1.3l-78.9-79.3c-0.9-0.9-2.1-1.5-3.4-1.5c-1.2,0-2.4,0.4-3.4,1.5L17,98.2
		c-0.9,0.9-1.9,1.3-3.1,1.3s-2.2-0.4-3-1.2c-0.9-0.7-1.3-1.6-1.3-2.8c-0.1-1.3,0.4-2.7,1.3-3.6l78.4-79c2.7-2.7,6.1-4.2,9.8-4.2
		c3.7,0,7.1,1.5,9.8,4.2l78.9,79.3c0.9,0.9,1.3,2.1,1.3,3.4c0,1.3-0.7,2.5-1.6,3.3C186.6,99.5,185.6,99.8,184.7,99.8z"/>
	<path class="st0" d="M122.6,188.5v-6.2h-6.2v-11.3c0-9.5-7.7-17.1-17.1-17.1c-9.5,0-17.1,7.7-17.1,17.1v11.3H76v6.2H40.8
		c-7.6,0-13.7-6.1-13.7-13.7V97.7c0-2.5,1.9-4.5,4.5-4.5s4.5,1.9,4.5,4.5v77.1c0,2.7,2.1,4.8,4.8,4.8h32.5v-8.5
		c0-14.4,11.7-26,26-26s26,11.7,26,26v8.5h32.5c2.7,0,4.8-2.1,4.8-4.8V97.7c0-2.5,1.9-4.5,4.5-4.5c2.5,0,4.5,1.9,4.5,4.5v77.1
		c0,7.6-6.1,13.7-13.7,13.7H122.6z"/>
	<path class="st0" d="M116.4,188.5v-8.9h8.9v8.9H116.4z M73.3,188.5v-8.9h8.9v8.9H73.3z"/>
</g>
</svg>
