<?xml version="1.0" standalone="no"?><!DOCTYPE svg PUBLIC "-//W3C//DTD SVG 1.1//EN" "http://www.w3.org/Graphics/SVG/1.1/DTD/svg11.dtd"><svg t="1659009452966" class="icon" viewBox="0 0 1024 1024" version="1.1" xmlns="http://www.w3.org/2000/svg" p-id="2190" xmlns:xlink="http://www.w3.org/1999/xlink" width="200" height="200"><defs><style type="text/css">@font-face { font-family: feedback-iconfont; src: url("//at.alicdn.com/t/font_1031158_u69w8yhxdu.woff2?t=1630033759944") format("woff2"), url("//at.alicdn.com/t/font_1031158_u69w8yhxdu.woff?t=1630033759944") format("woff"), url("//at.alicdn.com/t/font_1031158_u69w8yhxdu.ttf?t=1630033759944") format("truetype"); }
</style></defs><path d="M512 993.92c-6.88 0-13.76-2.496-19.2-7.456-15.392-14.08-377.184-347.616-377.184-560.576 0-218.24 177.824-395.776 396.352-395.776 218.56 0 396.384 177.536 396.384 395.776 0 212.96-361.792 546.496-377.184 560.576C525.728 991.424 518.88 993.92 512 993.92zM512 86.944c-187.2 0-339.52 152.032-339.52 338.944 0 146.848 229.344 395.744 339.52 500.704 110.176-104.96 339.488-353.856 339.488-500.704C851.488 238.976 699.2 86.944 512 86.944z" p-id="2191" fill="#8a88a0"></path><path d="M512 567.904c-91.456 0-165.888-74.336-165.888-165.696 0-91.36 74.432-165.696 165.888-165.696 91.488 0 165.952 74.336 165.952 165.696C677.92 493.568 603.488 567.904 512 567.904zM512 293.344c-60.128 0-109.056 48.832-109.056 108.864 0 60 48.928 108.832 109.056 108.832 60.16 0 109.056-48.832 109.056-108.832C621.056 342.176 572.16 293.344 512 293.344z" p-id="2192" fill="#8a88a0"></path></svg>