<?xml version="1.0" encoding="utf-8"?>
<!-- Generator: Adobe Illustrator 21.0.0, SVG Export Plug-In . SVG Version: 6.00 Build 0)  -->
<svg version="1.1" id="图层_1" xmlns="http://www.w3.org/2000/svg" xmlns:xlink="http://www.w3.org/1999/xlink" x="0px" y="0px"
	 viewBox="0 0 200 200" style="enable-background:new 0 0 200 200;" xml:space="preserve">
<style type="text/css">
	.st0{fill:#8A88A0;}
	.st1{fill:#FFFFFF;}
</style>
<path class="st0" d="M132,20.9H68c-8.4,0-16.1,4.5-20.3,11.7L15.6,88.3c-4.2,7.2-4.2,16.2,0,23.4l32.1,55.6
	c4.2,7.3,11.9,11.7,20.3,11.7h64c8.4,0,16.1-4.5,20.3-11.7l32.1-55.6c4.2-7.2,4.2-16.2,0-23.4l-32.1-55.6
	C148.1,25.4,140.4,20.9,132,20.9z"/>
<g>
	<path class="st1" d="M141.5,104.5h-83c-2.5,0-4.5-2-4.5-4.5s2-4.5,4.5-4.5h83c2.5,0,4.5,2,4.5,4.5S143.9,104.5,141.5,104.5z"/>
	<path class="st1" d="M95.5,141.5v-83c0-2.5,2-4.5,4.5-4.5c2.5,0,4.5,2,4.5,4.5v83c0,2.5-2,4.5-4.5,4.5S95.5,143.9,95.5,141.5z"/>
</g>
</svg>
