<?xml version="1.0" standalone="no"?><!DOCTYPE svg PUBLIC "-//W3C//DTD SVG 1.1//EN" "http://www.w3.org/Graphics/SVG/1.1/DTD/svg11.dtd"><svg t="1659009486758" class="icon" viewBox="0 0 1024 1024" version="1.1" xmlns="http://www.w3.org/2000/svg" p-id="2429" xmlns:xlink="http://www.w3.org/1999/xlink" width="200" height="200"><defs><style type="text/css">@font-face { font-family: feedback-iconfont; src: url("//at.alicdn.com/t/font_1031158_u69w8yhxdu.woff2?t=1630033759944") format("woff2"), url("//at.alicdn.com/t/font_1031158_u69w8yhxdu.woff?t=1630033759944") format("woff"), url("//at.alicdn.com/t/font_1031158_u69w8yhxdu.ttf?t=1630033759944") format("truetype"); }
</style></defs><path d="M750.858 143.19c10.64 0 21 2.1 30.74 6.302 9.33 4.072 17.89 9.852 25.15 17.202 7.27 7.35 12.97 15.885 16.99 25.47 4.15 9.845 6.24 20.352 6.24 31.117 0 0.917 0 1.837 0.12 2.627l39.3 598.858c-0.13 10.37-2.21 20.49-6.23 29.94-4.02 9.59-9.73 18.12-16.99 25.47-7.26 7.35-15.69 13.13-25.16 17.2-9.73 4.21-20.1 6.3-30.74 6.3L236.857 903.676c-10.635 0-21.012-2.09-30.742-6.3-9.465-4.07-17.9-9.85-25.157-17.2-7.267-7.35-12.972-15.88-16.992-25.47-4.02-9.45-6.095-19.57-6.225-29.94l39.43-598.988c0-0.92 0.13-1.84 0.13-2.627 0-10.767 2.07-21.27 6.225-31.117 4.02-9.582 9.725-18.12 16.99-25.472 7.26-7.352 15.692-13.127 25.16-17.202 9.727-4.195 20.105-6.3 30.737-6.3l474.446 0M513.634 491.154c-60.875 0-118.11-23.997-161.155-67.575-43.045-43.58-66.752-101.515-66.752-163.142 0-0.275 0.003-0.547 0.008-0.82l0 0.15 56.045 0.13c0 0.23 0 0.455-0.003 0.685 0.073 95.865 77.14 173.832 171.857 173.832 94.71 0 171.77-77.952 171.855-173.812-0.005-0.233-0.01-0.435-0.01-0.64l56.05-0.257 0-0.19c0.005 0.335 0.005 0.625 0.005 0.922 0 61.627-23.7 119.562-66.745 163.142C631.738 467.154 574.509 491.154 513.634 491.154zM760.768 85.535 266.489 85.535c-68.26 0-123.572 55.995-123.572 125.097l-41.23 625.476c0 69.11 55.312 125.1 123.572 125.1l576.749 0c68.26 0 123.57-55.99 123.57-125.1l-41.24-625.476C884.338 141.53 829.028 85.535 760.768 85.535L760.768 85.535 760.768 85.535z" p-id="2430" fill="#8a88a0"></path></svg>